REM DIRINDEX 1\5,1\2\6,1\2\7,1\3\8,1\3\9,1\4\10,1\4\11,1\4\12
REM DIRNAME folder01,folder02,folder03,folder04,folder05,folder06,folder07,folder08,folder09,folder10,folder11,folder12
TITLE ""
FILE "JE_DB3000_5th_6C_50.mp3" MP3
  TRACK 01 AUDIO
    TITLE "0:"
    INDEX 01 00:00:00
  TRACK 02 AUDIO
    TITLE "6:cjc026_03409"
    INDEX 01 00:00:05
  TRACK 03 AUDIO
    TITLE "0:"
    INDEX 01 00:01:01
  TRACK 04 AUDIO
    TITLE "7:cjc026_03410"
    INDEX 01 00:01:26
  TRACK 05 AUDIO
    TITLE "0:"
    INDEX 01 00:02:20
  TRACK 06 AUDIO
    TITLE "6:cjc026_03411"
    INDEX 01 00:02:45
  TRACK 07 AUDIO
    TITLE "0:"
    INDEX 01 00:03:51
  TRACK 08 AUDIO
    TITLE "7:cjc026_03412"
    INDEX 01 00:04:03
  TRACK 09 AUDIO
    TITLE "0:"
    INDEX 01 00:04:72
  TRACK 10 AUDIO
    TITLE "6:cjc026_03413"
    INDEX 01 00:05:22
  TRACK 11 AUDIO
    TITLE "0:"
    INDEX 01 00:06:30
  TRACK 12 AUDIO
    TITLE "7:cjc026_03414"
    INDEX 01 00:06:55
  TRACK 13 AUDIO
    TITLE "0:"
    INDEX 01 00:07:62
  TRACK 14 AUDIO
    TITLE "6:cjc026_03415"
    INDEX 01 00:08:13
  TRACK 15 AUDIO
    TITLE "0:"
    INDEX 01 00:09:32
  TRACK 16 AUDIO
    TITLE "7:cjc026_03416"
    INDEX 01 00:09:57
  TRACK 17 AUDIO
    TITLE "0:"
    INDEX 01 00:11:01
  TRACK 18 AUDIO
    TITLE "6:cjc026_03417"
    INDEX 01 00:11:27
  TRACK 19 AUDIO
    TITLE "0:"
    INDEX 01 00:12:67
  TRACK 20 AUDIO
    TITLE "7:cjc026_03418"
    INDEX 01 00:13:18
  TRACK 21 AUDIO
    TITLE "0:"
    INDEX 01 00:14:21
  TRACK 22 AUDIO
    TITLE "6:cjc026_03419"
    INDEX 01 00:14:47
  TRACK 23 AUDIO
    TITLE "0:"
    INDEX 01 00:15:58
  TRACK 24 AUDIO
    TITLE "7:cjc026_03420"
    INDEX 01 00:16:08
  TRACK 25 AUDIO
    TITLE "0:"
    INDEX 01 00:17:04
  TRACK 26 AUDIO
    TITLE "6:cjc026_03421"
    INDEX 01 00:17:29
  TRACK 27 AUDIO
    TITLE "0:"
    INDEX 01 00:18:68
  TRACK 28 AUDIO
    TITLE "7:cjc026_03422"
    INDEX 01 00:19:20
  TRACK 29 AUDIO
    TITLE "0:"
    INDEX 01 00:20:24
  TRACK 30 AUDIO
    TITLE "6:cjc026_03423"
    INDEX 01 00:20:51
  TRACK 31 AUDIO
    TITLE "0:"
    INDEX 01 00:22:11
  TRACK 32 AUDIO
    TITLE "7:cjc026_03424"
    INDEX 01 00:22:36
  TRACK 33 AUDIO
    TITLE "0:"
    INDEX 01 00:23:53
  TRACK 34 AUDIO
    TITLE "6:cjc026_03425"
    INDEX 01 00:24:04
  TRACK 35 AUDIO
    TITLE "0:"
    INDEX 01 00:26:22
  TRACK 36 AUDIO
    TITLE "7:cjc026_03426"
    INDEX 01 00:26:48
  TRACK 37 AUDIO
    TITLE "0:"
    INDEX 01 00:27:71
  TRACK 38 AUDIO
    TITLE "6:cjc026_03427"
    INDEX 01 00:28:21
  TRACK 39 AUDIO
    TITLE "0:"
    INDEX 01 00:30:38
  TRACK 40 AUDIO
    TITLE "7:cjc026_03428"
    INDEX 01 00:30:63
  TRACK 41 AUDIO
    TITLE "0:"
    INDEX 01 00:31:71
  TRACK 42 AUDIO
    TITLE "6:cjc026_03429"
    INDEX 01 00:32:21
  TRACK 43 AUDIO
    TITLE "0:"
    INDEX 01 00:33:36
  TRACK 44 AUDIO
    TITLE "7:cjc026_03430"
    INDEX 01 00:33:62
  TRACK 45 AUDIO
    TITLE "0:"
    INDEX 01 00:35:00
  TRACK 46 AUDIO
    TITLE "6:cjc026_03431"
    INDEX 01 00:35:27
  TRACK 47 AUDIO
    TITLE "0:"
    INDEX 01 00:36:15
  TRACK 48 AUDIO
    TITLE "7:cjc026_03432"
    INDEX 01 00:36:40
  TRACK 49 AUDIO
    TITLE "0:"
    INDEX 01 00:37:44
  TRACK 50 AUDIO
    TITLE "6:cjc026_03433"
    INDEX 01 00:37:69
  TRACK 51 AUDIO
    TITLE "0:"
    INDEX 01 00:39:13
  TRACK 52 AUDIO
    TITLE "7:cjc026_03434"
    INDEX 01 00:39:39
  TRACK 53 AUDIO
    TITLE "0:"
    INDEX 01 00:40:50
  TRACK 54 AUDIO
    TITLE "6:cjc026_03435"
    INDEX 01 00:41:00
  TRACK 55 AUDIO
    TITLE "0:"
    INDEX 01 00:43:11
  TRACK 56 AUDIO
    TITLE "7:cjc026_03436"
    INDEX 01 00:43:35
  TRACK 57 AUDIO
    TITLE "0:"
    INDEX 01 00:45:20
  TRACK 58 AUDIO
    TITLE "6:cjc026_03437"
    INDEX 01 00:45:45
  TRACK 59 AUDIO
    TITLE "0:"
    INDEX 01 00:47:15
  TRACK 60 AUDIO
    TITLE "7:cjc026_03438"
    INDEX 01 00:47:40
  TRACK 61 AUDIO
    TITLE "0:"
    INDEX 01 00:49:21
  TRACK 62 AUDIO
    TITLE "6:cjc026_03439"
    INDEX 01 00:49:47
  TRACK 63 AUDIO
    TITLE "0:"
    INDEX 01 00:51:30
  TRACK 64 AUDIO
    TITLE "7:cjc026_03440"
    INDEX 01 00:51:54
  TRACK 65 AUDIO
    TITLE "0:"
    INDEX 01 00:53:39
